# Tiled2Unity generated file. Do not modify by hand.
# Wavefront file for 'TestLevel_mesh_0007.obj'

# Vertices (Count = 560)
v -14.72 -14.4 0
v -15.04 -14.4 0
v -15.04 -14.08 0
v -14.72 -14.08 0
v -15.04 -14.4 0
v -15.36 -14.4 0
v -15.36 -14.08 0
v -15.04 -14.08 0
v -15.36 -14.4 0
v -15.68 -14.4 0
v -15.68 -14.08 0
v -15.36 -14.08 0
v -15.68 -14.4 0
v -16 -14.4 0
v -16 -14.08 0
v -15.68 -14.08 0
v -13.76 -14.72 0
v -14.08 -14.72 0
v -14.08 -14.4 0
v -13.76 -14.4 0
v -14.08 -14.72 0
v -14.4 -14.72 0
v -14.4 -14.4 0
v -14.08 -14.4 0
v -14.4 -14.72 0
v -14.72 -14.72 0
v -14.72 -14.4 0
v -14.4 -14.4 0
v -14.72 -14.72 0
v -15.04 -14.72 0
v -15.04 -14.4 0
v -14.72 -14.4 0
v -15.04 -14.72 0
v -15.36 -14.72 0
v -15.36 -14.4 0
v -15.04 -14.4 0
v -15.36 -14.72 0
v -15.68 -14.72 0
v -15.68 -14.4 0
v -15.36 -14.4 0
v -15.68 -14.72 0
v -16 -14.72 0
v -16 -14.4 0
v -15.68 -14.4 0
v -16 -14.72 0
v -16.32 -14.72 0
v -16.32 -14.4 0
v -16 -14.4 0
v -16.32 -14.72 0
v -16.64 -14.72 0
v -16.64 -14.4 0
v -16.32 -14.4 0
v -13.12 -15.04 0
v -13.44 -15.04 0
v -13.44 -14.72 0
v -13.12 -14.72 0
v -13.44 -15.04 0
v -13.76 -15.04 0
v -13.76 -14.72 0
v -13.44 -14.72 0
v -13.76 -15.04 0
v -14.08 -15.04 0
v -14.08 -14.72 0
v -13.76 -14.72 0
v -14.08 -15.04 0
v -14.4 -15.04 0
v -14.4 -14.72 0
v -14.08 -14.72 0
v -14.4 -15.04 0
v -14.72 -15.04 0
v -14.72 -14.72 0
v -14.4 -14.72 0
v -14.72 -15.04 0
v -15.04 -15.04 0
v -15.04 -14.72 0
v -14.72 -14.72 0
v -15.04 -15.04 0
v -15.36 -15.04 0
v -15.36 -14.72 0
v -15.04 -14.72 0
v -15.36 -15.04 0
v -15.68 -15.04 0
v -15.68 -14.72 0
v -15.36 -14.72 0
v -15.68 -15.04 0
v -16 -15.04 0
v -16 -14.72 0
v -15.68 -14.72 0
v -16 -15.04 0
v -16.32 -15.04 0
v -16.32 -14.72 0
v -16 -14.72 0
v -16.32 -15.04 0
v -16.64 -15.04 0
v -16.64 -14.72 0
v -16.32 -14.72 0
v -12.8 -15.36 0
v -13.12 -15.36 0
v -13.12 -15.04 0
v -12.8 -15.04 0
v -13.12 -15.36 0
v -13.44 -15.36 0
v -13.44 -15.04 0
v -13.12 -15.04 0
v -13.44 -15.36 0
v -13.76 -15.36 0
v -13.76 -15.04 0
v -13.44 -15.04 0
v -13.76 -15.36 0
v -14.08 -15.36 0
v -14.08 -15.04 0
v -13.76 -15.04 0
v -14.08 -15.36 0
v -14.4 -15.36 0
v -14.4 -15.04 0
v -14.08 -15.04 0
v -14.4 -15.36 0
v -14.72 -15.36 0
v -14.72 -15.04 0
v -14.4 -15.04 0
v -14.72 -15.36 0
v -15.04 -15.36 0
v -15.04 -15.04 0
v -14.72 -15.04 0
v -15.04 -15.36 0
v -15.36 -15.36 0
v -15.36 -15.04 0
v -15.04 -15.04 0
v -15.36 -15.36 0
v -15.68 -15.36 0
v -15.68 -15.04 0
v -15.36 -15.04 0
v -15.68 -15.36 0
v -16 -15.36 0
v -16 -15.04 0
v -15.68 -15.04 0
v -16 -15.36 0
v -16.32 -15.36 0
v -16.32 -15.04 0
v -16 -15.04 0
v -16.32 -15.36 0
v -16.64 -15.36 0
v -16.64 -15.04 0
v -16.32 -15.04 0
v -12.8 -15.68 0
v -13.12 -15.68 0
v -13.12 -15.36 0
v -12.8 -15.36 0
v -13.12 -15.68 0
v -13.44 -15.68 0
v -13.44 -15.36 0
v -13.12 -15.36 0
v -13.44 -15.68 0
v -13.76 -15.68 0
v -13.76 -15.36 0
v -13.44 -15.36 0
v -13.76 -15.68 0
v -14.08 -15.68 0
v -14.08 -15.36 0
v -13.76 -15.36 0
v -14.08 -15.68 0
v -14.4 -15.68 0
v -14.4 -15.36 0
v -14.08 -15.36 0
v -14.4 -15.68 0
v -14.72 -15.68 0
v -14.72 -15.36 0
v -14.4 -15.36 0
v -15.68 -15.68 0
v -16 -15.68 0
v -16 -15.36 0
v -15.68 -15.36 0
v -16 -15.68 0
v -16.32 -15.68 0
v -16.32 -15.36 0
v -16 -15.36 0
v -16.32 -15.68 0
v -16.64 -15.68 0
v -16.64 -15.36 0
v -16.32 -15.36 0
v -12.8 -16 0
v -13.12 -16 0
v -13.12 -15.68 0
v -12.8 -15.68 0
v -13.12 -16 0
v -13.44 -16 0
v -13.44 -15.68 0
v -13.12 -15.68 0
v -13.44 -16 0
v -13.76 -16 0
v -13.76 -15.68 0
v -13.44 -15.68 0
v -13.76 -16 0
v -14.08 -16 0
v -14.08 -15.68 0
v -13.76 -15.68 0
v -15.68 -16 0
v -16 -16 0
v -16 -15.68 0
v -15.68 -15.68 0
v -16 -16 0
v -16.32 -16 0
v -16.32 -15.68 0
v -16 -15.68 0
v -16.32 -16 0
v -16.64 -16 0
v -16.64 -15.68 0
v -16.32 -15.68 0
v -16.64 -16 0
v -16.96 -16 0
v -16.96 -15.68 0
v -16.64 -15.68 0
v -12.8 -16.32 0
v -13.12 -16.32 0
v -13.12 -16 0
v -12.8 -16 0
v -13.12 -16.32 0
v -13.44 -16.32 0
v -13.44 -16 0
v -13.12 -16 0
v -13.44 -16.32 0
v -13.76 -16.32 0
v -13.76 -16 0
v -13.44 -16 0
v -15.68 -16.32 0
v -16 -16.32 0
v -16 -16 0
v -15.68 -16 0
v -16 -16.32 0
v -16.32 -16.32 0
v -16.32 -16 0
v -16 -16 0
v -16.32 -16.32 0
v -16.64 -16.32 0
v -16.64 -16 0
v -16.32 -16 0
v -16.64 -16.32 0
v -16.96 -16.32 0
v -16.96 -16 0
v -16.64 -16 0
v -12.8 -16.64 0
v -13.12 -16.64 0
v -13.12 -16.32 0
v -12.8 -16.32 0
v -13.12 -16.64 0
v -13.44 -16.64 0
v -13.44 -16.32 0
v -13.12 -16.32 0
v -13.44 -16.64 0
v -13.76 -16.64 0
v -13.76 -16.32 0
v -13.44 -16.32 0
v -13.76 -16.64 0
v -14.08 -16.64 0
v -14.08 -16.32 0
v -13.76 -16.32 0
v -14.08 -16.64 0
v -14.4 -16.64 0
v -14.4 -16.32 0
v -14.08 -16.32 0
v -14.4 -16.64 0
v -14.72 -16.64 0
v -14.72 -16.32 0
v -14.4 -16.32 0
v -15.68 -16.64 0
v -16 -16.64 0
v -16 -16.32 0
v -15.68 -16.32 0
v -16 -16.64 0
v -16.32 -16.64 0
v -16.32 -16.32 0
v -16 -16.32 0
v -16.32 -16.64 0
v -16.64 -16.64 0
v -16.64 -16.32 0
v -16.32 -16.32 0
v -16.64 -16.64 0
v -16.96 -16.64 0
v -16.96 -16.32 0
v -16.64 -16.32 0
v -12.8 -16.96 0
v -13.12 -16.96 0
v -13.12 -16.64 0
v -12.8 -16.64 0
v -13.12 -16.96 0
v -13.44 -16.96 0
v -13.44 -16.64 0
v -13.12 -16.64 0
v -13.44 -16.96 0
v -13.76 -16.96 0
v -13.76 -16.64 0
v -13.44 -16.64 0
v -13.76 -16.96 0
v -14.08 -16.96 0
v -14.08 -16.64 0
v -13.76 -16.64 0
v -14.08 -16.96 0
v -14.4 -16.96 0
v -14.4 -16.64 0
v -14.08 -16.64 0
v -14.4 -16.96 0
v -14.72 -16.96 0
v -14.72 -16.64 0
v -14.4 -16.64 0
v -14.72 -16.96 0
v -15.04 -16.96 0
v -15.04 -16.64 0
v -14.72 -16.64 0
v -15.04 -16.96 0
v -15.36 -16.96 0
v -15.36 -16.64 0
v -15.04 -16.64 0
v -15.36 -16.96 0
v -15.68 -16.96 0
v -15.68 -16.64 0
v -15.36 -16.64 0
v -15.68 -16.96 0
v -16 -16.96 0
v -16 -16.64 0
v -15.68 -16.64 0
v -16 -16.96 0
v -16.32 -16.96 0
v -16.32 -16.64 0
v -16 -16.64 0
v -16.32 -16.96 0
v -16.64 -16.96 0
v -16.64 -16.64 0
v -16.32 -16.64 0
v -16.64 -16.96 0
v -16.96 -16.96 0
v -16.96 -16.64 0
v -16.64 -16.64 0
v -16.96 -16.96 0
v -17.28 -16.96 0
v -17.28 -16.64 0
v -16.96 -16.64 0
v -12.8 -17.28 0
v -13.12 -17.28 0
v -13.12 -16.96 0
v -12.8 -16.96 0
v -13.12 -17.28 0
v -13.44 -17.28 0
v -13.44 -16.96 0
v -13.12 -16.96 0
v -13.44 -17.28 0
v -13.76 -17.28 0
v -13.76 -16.96 0
v -13.44 -16.96 0
v -13.76 -17.28 0
v -14.08 -17.28 0
v -14.08 -16.96 0
v -13.76 -16.96 0
v -14.08 -17.28 0
v -14.4 -17.28 0
v -14.4 -16.96 0
v -14.08 -16.96 0
v -14.4 -17.28 0
v -14.72 -17.28 0
v -14.72 -16.96 0
v -14.4 -16.96 0
v -14.72 -17.28 0
v -15.04 -17.28 0
v -15.04 -16.96 0
v -14.72 -16.96 0
v -15.04 -17.28 0
v -15.36 -17.28 0
v -15.36 -16.96 0
v -15.04 -16.96 0
v -15.36 -17.28 0
v -15.68 -17.28 0
v -15.68 -16.96 0
v -15.36 -16.96 0
v -15.68 -17.28 0
v -16 -17.28 0
v -16 -16.96 0
v -15.68 -16.96 0
v -16 -17.28 0
v -16.32 -17.28 0
v -16.32 -16.96 0
v -16 -16.96 0
v -16.32 -17.28 0
v -16.64 -17.28 0
v -16.64 -16.96 0
v -16.32 -16.96 0
v -16.64 -17.28 0
v -16.96 -17.28 0
v -16.96 -16.96 0
v -16.64 -16.96 0
v -16.96 -17.28 0
v -17.28 -17.28 0
v -17.28 -16.96 0
v -16.96 -16.96 0
v -13.12 -17.6 0
v -13.44 -17.6 0
v -13.44 -17.28 0
v -13.12 -17.28 0
v -13.44 -17.6 0
v -13.76 -17.6 0
v -13.76 -17.28 0
v -13.44 -17.28 0
v -13.76 -17.6 0
v -14.08 -17.6 0
v -14.08 -17.28 0
v -13.76 -17.28 0
v -14.08 -17.6 0
v -14.4 -17.6 0
v -14.4 -17.28 0
v -14.08 -17.28 0
v -14.4 -17.6 0
v -14.72 -17.6 0
v -14.72 -17.28 0
v -14.4 -17.28 0
v -14.72 -17.6 0
v -15.04 -17.6 0
v -15.04 -17.28 0
v -14.72 -17.28 0
v -15.04 -17.6 0
v -15.36 -17.6 0
v -15.36 -17.28 0
v -15.04 -17.28 0
v -15.36 -17.6 0
v -15.68 -17.6 0
v -15.68 -17.28 0
v -15.36 -17.28 0
v -15.68 -17.6 0
v -16 -17.6 0
v -16 -17.28 0
v -15.68 -17.28 0
v -16 -17.6 0
v -16.32 -17.6 0
v -16.32 -17.28 0
v -16 -17.28 0
v -16.32 -17.6 0
v -16.64 -17.6 0
v -16.64 -17.28 0
v -16.32 -17.28 0
v -16.64 -17.6 0
v -16.96 -17.6 0
v -16.96 -17.28 0
v -16.64 -17.28 0
v -16.96 -17.6 0
v -17.28 -17.6 0
v -17.28 -17.28 0
v -16.96 -17.28 0
v -13.12 -17.92 0
v -13.44 -17.92 0
v -13.44 -17.6 0
v -13.12 -17.6 0
v -13.44 -17.92 0
v -13.76 -17.92 0
v -13.76 -17.6 0
v -13.44 -17.6 0
v -13.76 -17.92 0
v -14.08 -17.92 0
v -14.08 -17.6 0
v -13.76 -17.6 0
v -14.08 -17.92 0
v -14.4 -17.92 0
v -14.4 -17.6 0
v -14.08 -17.6 0
v -14.4 -17.92 0
v -14.72 -17.92 0
v -14.72 -17.6 0
v -14.4 -17.6 0
v -14.72 -17.92 0
v -15.04 -17.92 0
v -15.04 -17.6 0
v -14.72 -17.6 0
v -15.04 -17.92 0
v -15.36 -17.92 0
v -15.36 -17.6 0
v -15.04 -17.6 0
v -15.36 -17.92 0
v -15.68 -17.92 0
v -15.68 -17.6 0
v -15.36 -17.6 0
v -15.68 -17.92 0
v -16 -17.92 0
v -16 -17.6 0
v -15.68 -17.6 0
v -16 -17.92 0
v -16.32 -17.92 0
v -16.32 -17.6 0
v -16 -17.6 0
v -16.32 -17.92 0
v -16.64 -17.92 0
v -16.64 -17.6 0
v -16.32 -17.6 0
v -16.64 -17.92 0
v -16.96 -17.92 0
v -16.96 -17.6 0
v -16.64 -17.6 0
v -16.96 -17.92 0
v -17.28 -17.92 0
v -17.28 -17.6 0
v -16.96 -17.6 0
v -13.44 -18.24 0
v -13.76 -18.24 0
v -13.76 -17.92 0
v -13.44 -17.92 0
v -13.76 -18.24 0
v -14.08 -18.24 0
v -14.08 -17.92 0
v -13.76 -17.92 0
v -14.08 -18.24 0
v -14.4 -18.24 0
v -14.4 -17.92 0
v -14.08 -17.92 0
v -14.4 -18.24 0
v -14.72 -18.24 0
v -14.72 -17.92 0
v -14.4 -17.92 0
v -14.72 -18.24 0
v -15.04 -18.24 0
v -15.04 -17.92 0
v -14.72 -17.92 0
v -15.04 -18.24 0
v -15.36 -18.24 0
v -15.36 -17.92 0
v -15.04 -17.92 0
v -15.36 -18.24 0
v -15.68 -18.24 0
v -15.68 -17.92 0
v -15.36 -17.92 0
v -15.68 -18.24 0
v -16 -18.24 0
v -16 -17.92 0
v -15.68 -17.92 0
v -16 -18.24 0
v -16.32 -18.24 0
v -16.32 -17.92 0
v -16 -17.92 0
v -16.32 -18.24 0
v -16.64 -18.24 0
v -16.64 -17.92 0
v -16.32 -17.92 0
v -16.64 -18.24 0
v -16.96 -18.24 0
v -16.96 -17.92 0
v -16.64 -17.92 0
v -14.4 -18.56 0
v -14.72 -18.56 0
v -14.72 -18.24 0
v -14.4 -18.24 0
v -14.72 -18.56 0
v -15.04 -18.56 0
v -15.04 -18.24 0
v -14.72 -18.24 0
v -15.04 -18.56 0
v -15.36 -18.56 0
v -15.36 -18.24 0
v -15.04 -18.24 0
v -15.36 -18.56 0
v -15.68 -18.56 0
v -15.68 -18.24 0
v -15.36 -18.24 0
v -15.68 -18.56 0
v -16 -18.56 0
v -16 -18.24 0
v -15.68 -18.24 0

# Texture cooridinates (Count = 52)
vt 0.0001220703 0.5001221
vt 0.3332113 0.5001221
vt 0.3332113 0.6665446
vt 0.0001220703 0.6665446
vt 0.3334554 0.5001221
vt 0.6665446 0.5001221
vt 0.6665446 0.6665446
vt 0.3334554 0.6665446
vt 0.6667888 0.5001221
vt 0.9998779 0.5001221
vt 0.9998779 0.6665446
vt 0.6667888 0.6665446
vt 0.6667888 0.6667887
vt 0.9998779 0.6667887
vt 0.9998779 0.8332112
vt 0.6667888 0.8332112
vt 0.3334554 0.3334554
vt 0.6665446 0.3334554
vt 0.6665446 0.4998779
vt 0.3334554 0.4998779
vt 0.3334554 0.6667887
vt 0.6665446 0.6667887
vt 0.6665446 0.8332112
vt 0.3334554 0.8332112
vt 0.6667888 0.3334554
vt 0.9998779 0.3334554
vt 0.9998779 0.4998779
vt 0.6667888 0.4998779
vt 0.3334554 0.8334554
vt 0.6665446 0.8334554
vt 0.6665446 0.9998779
vt 0.3334554 0.9998779
vt 0.3334554 0.1667888
vt 0.6665446 0.1667888
vt 0.6665446 0.3332112
vt 0.3334554 0.3332112
vt 0.6667888 0.8334554
vt 0.9998779 0.8334554
vt 0.9998779 0.9998779
vt 0.6667888 0.9998779
vt 0.0001220703 0.3334554
vt 0.3332113 0.3334554
vt 0.3332113 0.4998779
vt 0.0001220703 0.4998779
vt 0.6667888 0.1667888
vt 0.9998779 0.1667888
vt 0.9998779 0.3332112
vt 0.6667888 0.3332112
vt 0.0001220703 0.1667888
vt 0.3332113 0.1667888
vt 0.3332113 0.3332112
vt 0.0001220703 0.3332112

# Normal
vn 0 0 -1

# Mesh description
g TestLevel_mesh_0007

# Faces
f 1/1/1 2/2/1 3/3/1 4/4/1
f 5/5/1 6/6/1 7/7/1 8/8/1
f 9/5/1 10/6/1 11/7/1 12/8/1
f 13/9/1 14/10/1 15/11/1 16/12/1
f 17/1/1 18/2/1 19/3/1 20/4/1
f 21/5/1 22/6/1 23/7/1 24/8/1
f 25/5/1 26/6/1 27/7/1 28/8/1
f 29/13/1 30/14/1 31/15/1 32/16/1
f 33/17/1 34/18/1 35/19/1 36/20/1
f 37/17/1 38/18/1 39/19/1 40/20/1
f 41/21/1 42/22/1 43/23/1 44/24/1
f 45/5/1 46/6/1 47/7/1 48/8/1
f 49/9/1 50/10/1 51/11/1 52/12/1
f 53/1/1 54/2/1 55/3/1 56/4/1
f 57/5/1 58/6/1 59/7/1 60/8/1
f 61/13/1 62/14/1 63/15/1 64/16/1
f 65/17/1 66/18/1 67/19/1 68/20/1
f 69/17/1 70/18/1 71/19/1 72/20/1
f 73/17/1 74/18/1 75/19/1 76/20/1
f 77/17/1 78/18/1 79/19/1 80/20/1
f 81/17/1 82/18/1 83/19/1 84/20/1
f 85/17/1 86/18/1 87/19/1 88/20/1
f 89/17/1 90/18/1 91/19/1 92/20/1
f 93/25/1 94/26/1 95/27/1 96/28/1
f 97/1/1 98/2/1 99/3/1 100/4/1
f 101/13/1 102/14/1 103/15/1 104/16/1
f 105/17/1 106/18/1 107/19/1 108/20/1
f 109/17/1 110/18/1 111/19/1 112/20/1
f 113/17/1 114/18/1 115/19/1 116/20/1
f 117/29/1 118/30/1 119/31/1 120/32/1
f 121/33/1 122/34/1 123/35/1 124/36/1
f 125/33/1 126/34/1 127/35/1 128/36/1
f 129/33/1 130/34/1 131/35/1 132/36/1
f 133/37/1 134/38/1 135/39/1 136/40/1
f 137/17/1 138/18/1 139/19/1 140/20/1
f 141/25/1 142/26/1 143/27/1 144/28/1
f 145/41/1 146/42/1 147/43/1 148/44/1
f 149/17/1 150/18/1 151/19/1 152/20/1
f 153/17/1 154/18/1 155/19/1 156/20/1
f 157/29/1 158/30/1 159/31/1 160/32/1
f 161/33/1 162/34/1 163/35/1 164/36/1
f 165/45/1 166/46/1 167/47/1 168/48/1
f 169/41/1 170/42/1 171/43/1 172/44/1
f 173/17/1 174/18/1 175/19/1 176/20/1
f 177/25/1 178/26/1 179/27/1 180/28/1
f 181/41/1 182/42/1 183/43/1 184/44/1
f 185/17/1 186/18/1 187/19/1 188/20/1
f 189/29/1 190/30/1 191/31/1 192/32/1
f 193/45/1 194/46/1 195/47/1 196/48/1
f 197/41/1 198/42/1 199/43/1 200/44/1
f 201/17/1 202/18/1 203/19/1 204/20/1
f 205/21/1 206/22/1 207/23/1 208/24/1
f 209/9/1 210/10/1 211/11/1 212/12/1
f 213/41/1 214/42/1 215/43/1 216/44/1
f 217/17/1 218/18/1 219/19/1 220/20/1
f 221/25/1 222/26/1 223/27/1 224/28/1
f 225/41/1 226/42/1 227/43/1 228/44/1
f 229/17/1 230/18/1 231/19/1 232/20/1
f 233/17/1 234/18/1 235/19/1 236/20/1
f 237/25/1 238/26/1 239/27/1 240/28/1
f 241/41/1 242/42/1 243/43/1 244/44/1
f 245/17/1 246/18/1 247/19/1 248/20/1
f 249/21/1 250/22/1 251/23/1 252/24/1
f 253/5/1 254/6/1 255/7/1 256/8/1
f 257/5/1 258/6/1 259/7/1 260/8/1
f 261/9/1 262/10/1 263/11/1 264/12/1
f 265/41/1 266/42/1 267/43/1 268/44/1
f 269/17/1 270/18/1 271/19/1 272/20/1
f 273/17/1 274/18/1 275/19/1 276/20/1
f 277/25/1 278/26/1 279/27/1 280/28/1
f 281/41/1 282/42/1 283/43/1 284/44/1
f 285/17/1 286/18/1 287/19/1 288/20/1
f 289/17/1 290/18/1 291/19/1 292/20/1
f 293/17/1 294/18/1 295/19/1 296/20/1
f 297/17/1 298/18/1 299/19/1 300/20/1
f 301/21/1 302/22/1 303/23/1 304/24/1
f 305/5/1 306/6/1 307/7/1 308/8/1
f 309/5/1 310/6/1 311/7/1 312/8/1
f 313/5/1 314/6/1 315/7/1 316/8/1
f 317/13/1 318/14/1 319/15/1 320/16/1
f 321/17/1 322/18/1 323/19/1 324/20/1
f 325/17/1 326/18/1 327/19/1 328/20/1
f 329/21/1 330/22/1 331/23/1 332/24/1
f 333/9/1 334/10/1 335/11/1 336/12/1
f 337/49/1 338/50/1 339/51/1 340/52/1
f 341/37/1 342/38/1 343/39/1 344/40/1
f 345/17/1 346/18/1 347/19/1 348/20/1
f 349/17/1 350/18/1 351/19/1 352/20/1
f 353/17/1 354/18/1 355/19/1 356/20/1
f 357/17/1 358/18/1 359/19/1 360/20/1
f 361/17/1 362/18/1 363/19/1 364/20/1
f 365/17/1 366/18/1 367/19/1 368/20/1
f 369/17/1 370/18/1 371/19/1 372/20/1
f 373/17/1 374/18/1 375/19/1 376/20/1
f 377/17/1 378/18/1 379/19/1 380/20/1
f 381/17/1 382/18/1 383/19/1 384/20/1
f 385/17/1 386/18/1 387/19/1 388/20/1
f 389/25/1 390/26/1 391/27/1 392/28/1
f 393/41/1 394/42/1 395/43/1 396/44/1
f 397/17/1 398/18/1 399/19/1 400/20/1
f 401/17/1 402/18/1 403/19/1 404/20/1
f 405/17/1 406/18/1 407/19/1 408/20/1
f 409/17/1 410/18/1 411/19/1 412/20/1
f 413/17/1 414/18/1 415/19/1 416/20/1
f 417/17/1 418/18/1 419/19/1 420/20/1
f 421/17/1 422/18/1 423/19/1 424/20/1
f 425/17/1 426/18/1 427/19/1 428/20/1
f 429/17/1 430/18/1 431/19/1 432/20/1
f 433/17/1 434/18/1 435/19/1 436/20/1
f 437/17/1 438/18/1 439/19/1 440/20/1
f 441/25/1 442/26/1 443/27/1 444/28/1
f 445/49/1 446/50/1 447/51/1 448/52/1
f 449/37/1 450/38/1 451/39/1 452/40/1
f 453/17/1 454/18/1 455/19/1 456/20/1
f 457/17/1 458/18/1 459/19/1 460/20/1
f 461/17/1 462/18/1 463/19/1 464/20/1
f 465/17/1 466/18/1 467/19/1 468/20/1
f 469/17/1 470/18/1 471/19/1 472/20/1
f 473/17/1 474/18/1 475/19/1 476/20/1
f 477/17/1 478/18/1 479/19/1 480/20/1
f 481/17/1 482/18/1 483/19/1 484/20/1
f 485/17/1 486/18/1 487/19/1 488/20/1
f 489/29/1 490/30/1 491/31/1 492/32/1
f 493/45/1 494/46/1 495/47/1 496/48/1
f 497/49/1 498/50/1 499/51/1 500/52/1
f 501/33/1 502/34/1 503/35/1 504/36/1
f 505/33/1 506/34/1 507/35/1 508/36/1
f 509/37/1 510/38/1 511/39/1 512/40/1
f 513/17/1 514/18/1 515/19/1 516/20/1
f 517/17/1 518/18/1 519/19/1 520/20/1
f 521/17/1 522/18/1 523/19/1 524/20/1
f 525/29/1 526/30/1 527/31/1 528/32/1
f 529/33/1 530/34/1 531/35/1 532/36/1
f 533/33/1 534/34/1 535/35/1 536/36/1
f 537/45/1 538/46/1 539/47/1 540/48/1
f 541/49/1 542/50/1 543/51/1 544/52/1
f 545/33/1 546/34/1 547/35/1 548/36/1
f 549/33/1 550/34/1 551/35/1 552/36/1
f 553/33/1 554/34/1 555/35/1 556/36/1
f 557/45/1 558/46/1 559/47/1 560/48/1

