# Tiled2Unity generated file. Do not modify by hand.
# Wavefront file for 'TestLevel_mesh_0003.obj'

# Vertices (Count = 900)
v -0.96 -0.64 0
v -1.28 -0.64 0
v -1.28 -0.32 0
v -0.96 -0.32 0
v -1.92 -0.64 0
v -2.24 -0.64 0
v -2.24 -0.32 0
v -1.92 -0.32 0
v -2.56 -0.64 0
v -2.88 -0.64 0
v -2.88 -0.32 0
v -2.56 -0.32 0
v -3.52 -0.96 0
v -3.84 -0.96 0
v -3.84 -0.64 0
v -3.52 -0.64 0
v -4.8 -0.96 0
v -5.12 -0.96 0
v -5.12 -0.64 0
v -4.8 -0.64 0
v -6.72 -0.96 0
v -7.04 -0.96 0
v -7.04 -0.64 0
v -6.72 -0.64 0
v -0.32 -1.28 0
v -0.64 -1.28 0
v -0.64 -0.96 0
v -0.32 -0.96 0
v -12.48 -1.28 0
v -12.8 -1.28 0
v -12.8 -0.96 0
v -12.48 -0.96 0
v -16.32 -1.28 0
v -16.64 -1.28 0
v -16.64 -0.96 0
v -16.32 -0.96 0
v -21.44 -1.28 0
v -21.76 -1.28 0
v -21.76 -0.96 0
v -21.44 -0.96 0
v -8.96 -1.6 0
v -9.28 -1.6 0
v -9.28 -1.28 0
v -8.96 -1.28 0
v -21.44 -1.6 0
v -21.76 -1.6 0
v -21.76 -1.28 0
v -21.44 -1.28 0
v -1.28 -1.92 0
v -1.6 -1.92 0
v -1.6 -1.6 0
v -1.28 -1.6 0
v -3.2 -1.92 0
v -3.52 -1.92 0
v -3.52 -1.6 0
v -3.2 -1.6 0
v -3.2 -2.24 0
v -3.52 -2.24 0
v -3.52 -1.92 0
v -3.2 -1.92 0
v -7.04 -2.24 0
v -7.36 -2.24 0
v -7.36 -1.92 0
v -7.04 -1.92 0
v -8.32 -2.24 0
v -8.639999 -2.24 0
v -8.639999 -1.92 0
v -8.32 -1.92 0
v -17.28 -2.24 0
v -17.6 -2.24 0
v -17.6 -1.92 0
v -17.28 -1.92 0
v -4.8 -2.56 0
v -5.12 -2.56 0
v -5.12 -2.24 0
v -4.8 -2.24 0
v -5.76 -2.56 0
v -6.08 -2.56 0
v -6.08 -2.24 0
v -5.76 -2.24 0
v -10.56 -2.56 0
v -10.88 -2.56 0
v -10.88 -2.24 0
v -10.56 -2.24 0
v -22.72 -2.56 0
v -23.04 -2.56 0
v -23.04 -2.24 0
v -22.72 -2.24 0
v -0.96 -2.88 0
v -1.28 -2.88 0
v -1.28 -2.56 0
v -0.96 -2.56 0
v -2.88 -2.88 0
v -3.2 -2.88 0
v -3.2 -2.56 0
v -2.88 -2.56 0
v -4.16 -2.88 0
v -4.48 -2.88 0
v -4.48 -2.56 0
v -4.16 -2.56 0
v -12.16 -2.88 0
v -12.48 -2.88 0
v -12.48 -2.56 0
v -12.16 -2.56 0
v -22.72 -2.88 0
v -23.04 -2.88 0
v -23.04 -2.56 0
v -22.72 -2.56 0
v -2.88 -3.2 0
v -3.2 -3.2 0
v -3.2 -2.88 0
v -2.88 -2.88 0
v -12.16 -3.2 0
v -12.48 -3.2 0
v -12.48 -2.88 0
v -12.16 -2.88 0
v -13.44 -3.2 0
v -13.76 -3.2 0
v -13.76 -2.88 0
v -13.44 -2.88 0
v -15.36 -3.2 0
v -15.68 -3.2 0
v -15.68 -2.88 0
v -15.36 -2.88 0
v -7.04 -3.52 0
v -7.36 -3.52 0
v -7.36 -3.2 0
v -7.04 -3.2 0
v -18.88 -3.52 0
v -19.2 -3.52 0
v -19.2 -3.2 0
v -18.88 -3.2 0
v -6.08 -3.84 0
v -6.4 -3.84 0
v -6.4 -3.52 0
v -6.08 -3.52 0
v -8.32 -3.84 0
v -8.639999 -3.84 0
v -8.639999 -3.52 0
v -8.32 -3.52 0
v -18.88 -3.84 0
v -19.2 -3.84 0
v -19.2 -3.52 0
v -18.88 -3.52 0
v -0.96 -4.16 0
v -1.28 -4.16 0
v -1.28 -3.84 0
v -0.96 -3.84 0
v -3.52 -4.16 0
v -3.84 -4.16 0
v -3.84 -3.84 0
v -3.52 -3.84 0
v -9.599999 -4.16 0
v -9.92 -4.16 0
v -9.92 -3.84 0
v -9.599999 -3.84 0
v -1.92 -4.48 0
v -2.24 -4.48 0
v -2.24 -4.16 0
v -1.92 -4.16 0
v -5.12 -4.48 0
v -5.44 -4.48 0
v -5.44 -4.16 0
v -5.12 -4.16 0
v -16 -4.48 0
v -16.32 -4.48 0
v -16.32 -4.16 0
v -16 -4.16 0
v -6.72 -4.8 0
v -7.04 -4.8 0
v -7.04 -4.48 0
v -6.72 -4.48 0
v -13.76 -4.8 0
v -14.08 -4.8 0
v -14.08 -4.48 0
v -13.76 -4.48 0
v -14.72 -4.8 0
v -15.04 -4.8 0
v -15.04 -4.48 0
v -14.72 -4.48 0
v -3.2 -5.12 0
v -3.52 -5.12 0
v -3.52 -4.8 0
v -3.2 -4.8 0
v -6.72 -5.12 0
v -7.04 -5.12 0
v -7.04 -4.8 0
v -6.72 -4.8 0
v -7.68 -5.12 0
v -8 -5.12 0
v -8 -4.8 0
v -7.68 -4.8 0
v -8.96 -5.12 0
v -9.28 -5.12 0
v -9.28 -4.8 0
v -8.96 -4.8 0
v -11.52 -5.12 0
v -11.84 -5.12 0
v -11.84 -4.8 0
v -11.52 -4.8 0
v -0.64 -5.44 0
v -0.96 -5.44 0
v -0.96 -5.12 0
v -0.64 -5.12 0
v -1.6 -5.44 0
v -1.92 -5.44 0
v -1.92 -5.12 0
v -1.6 -5.12 0
v -10.24 -5.44 0
v -10.56 -5.44 0
v -10.56 -5.12 0
v -10.24 -5.12 0
v -18.56 -5.44 0
v -18.88 -5.44 0
v -18.88 -5.12 0
v -18.56 -5.12 0
v -21.44 -5.44 0
v -21.76 -5.44 0
v -21.76 -5.12 0
v -21.44 -5.12 0
v -4.8 -5.76 0
v -5.12 -5.76 0
v -5.12 -5.44 0
v -4.8 -5.44 0
v -12.48 -5.76 0
v -12.8 -5.76 0
v -12.8 -5.44 0
v -12.48 -5.44 0
v -18.56 -5.76 0
v -18.88 -5.76 0
v -18.88 -5.44 0
v -18.56 -5.44 0
v -21.44 -5.76 0
v -21.76 -5.76 0
v -21.76 -5.44 0
v -21.44 -5.44 0
v -5.44 -6.08 0
v -5.76 -6.08 0
v -5.76 -5.76 0
v -5.44 -5.76 0
v -8 -6.08 0
v -8.32 -6.08 0
v -8.32 -5.76 0
v -8 -5.76 0
v -16 -6.08 0
v -16.32 -6.08 0
v -16.32 -5.76 0
v -16 -5.76 0
v -22.72 -6.08 0
v -23.04 -6.08 0
v -23.04 -5.76 0
v -22.72 -5.76 0
v -0.32 -6.4 0
v -0.64 -6.4 0
v -0.64 -6.08 0
v -0.32 -6.08 0
v -2.24 -6.4 0
v -2.56 -6.4 0
v -2.56 -6.08 0
v -2.24 -6.08 0
v -3.52 -6.4 0
v -3.84 -6.4 0
v -3.84 -6.08 0
v -3.52 -6.08 0
v -5.44 -6.4 0
v -5.76 -6.4 0
v -5.76 -6.08 0
v -5.44 -6.08 0
v -10.24 -6.4 0
v -10.56 -6.4 0
v -10.56 -6.08 0
v -10.24 -6.08 0
v -14.08 -6.4 0
v -14.4 -6.4 0
v -14.4 -6.08 0
v -14.08 -6.08 0
v -22.72 -6.4 0
v -23.04 -6.4 0
v -23.04 -6.08 0
v -22.72 -6.08 0
v -1.28 -6.72 0
v -1.6 -6.72 0
v -1.6 -6.4 0
v -1.28 -6.4 0
v -6.72 -6.72 0
v -7.04 -6.72 0
v -7.04 -6.4 0
v -6.72 -6.4 0
v -8.96 -6.72 0
v -9.28 -6.72 0
v -9.28 -6.4 0
v -8.96 -6.4 0
v -11.2 -6.72 0
v -11.52 -6.72 0
v -11.52 -6.4 0
v -11.2 -6.4 0
v -11.2 -7.04 0
v -11.52 -7.04 0
v -11.52 -6.72 0
v -11.2 -6.72 0
v -5.76 -7.36 0
v -6.08 -7.36 0
v -6.08 -7.04 0
v -5.76 -7.04 0
v -2.56 -7.68 0
v -2.88 -7.68 0
v -2.88 -7.36 0
v -2.56 -7.36 0
v -4.48 -7.68 0
v -4.8 -7.68 0
v -4.8 -7.36 0
v -4.48 -7.36 0
v -7.04 -7.68 0
v -7.36 -7.68 0
v -7.36 -7.36 0
v -7.04 -7.36 0
v -8.639999 -7.68 0
v -8.96 -7.68 0
v -8.96 -7.36 0
v -8.639999 -7.36 0
v -9.599999 -7.68 0
v -9.92 -7.68 0
v -9.92 -7.36 0
v -9.599999 -7.36 0
v -1.28 -8 0
v -1.6 -8 0
v -1.6 -7.68 0
v -1.28 -7.68 0
v -20.48 -8 0
v -20.8 -8 0
v -20.8 -7.68 0
v -20.48 -7.68 0
v -22.72 -8 0
v -23.04 -8 0
v -23.04 -7.68 0
v -22.72 -7.68 0
v -0.32 -8.32 0
v -0.64 -8.32 0
v -0.64 -8 0
v -0.32 -8 0
v -20.48 -8.32 0
v -20.8 -8.32 0
v -20.8 -8 0
v -20.48 -8 0
v -22.72 -8.32 0
v -23.04 -8.32 0
v -23.04 -8 0
v -22.72 -8 0
v -1.92 -8.639999 0
v -2.24 -8.639999 0
v -2.24 -8.32 0
v -1.92 -8.32 0
v -3.84 -8.639999 0
v -4.16 -8.639999 0
v -4.16 -8.32 0
v -3.84 -8.32 0
v -6.4 -8.639999 0
v -6.72 -8.639999 0
v -6.72 -8.32 0
v -6.4 -8.32 0
v -13.76 -8.639999 0
v -14.08 -8.639999 0
v -14.08 -8.32 0
v -13.76 -8.32 0
v -8 -8.96 0
v -8.32 -8.96 0
v -8.32 -8.639999 0
v -8 -8.639999 0
v -8.96 -8.96 0
v -9.28 -8.96 0
v -9.28 -8.639999 0
v -8.96 -8.639999 0
v -9.92 -8.96 0
v -10.24 -8.96 0
v -10.24 -8.639999 0
v -9.92 -8.639999 0
v -13.76 -8.96 0
v -14.08 -8.96 0
v -14.08 -8.639999 0
v -13.76 -8.639999 0
v -3.2 -9.28 0
v -3.52 -9.28 0
v -3.52 -8.96 0
v -3.2 -8.96 0
v -5.44 -9.28 0
v -5.76 -9.28 0
v -5.76 -8.96 0
v -5.44 -8.96 0
v -7.36 -9.28 0
v -7.68 -9.28 0
v -7.68 -8.96 0
v -7.36 -8.96 0
v -4.48 -9.599999 0
v -4.8 -9.599999 0
v -4.8 -9.28 0
v -4.48 -9.28 0
v -7.36 -9.599999 0
v -7.68 -9.599999 0
v -7.68 -9.28 0
v -7.36 -9.28 0
v -9.28 -9.92 0
v -9.599999 -9.92 0
v -9.599999 -9.599999 0
v -9.28 -9.599999 0
v -16.64 -9.92 0
v -16.96 -9.92 0
v -16.96 -9.599999 0
v -16.64 -9.599999 0
v -6.08 -10.24 0
v -6.4 -10.24 0
v -6.4 -9.92 0
v -6.08 -9.92 0
v -7.36 -10.24 0
v -7.68 -10.24 0
v -7.68 -9.92 0
v -7.36 -9.92 0
v -8.32 -10.24 0
v -8.639999 -10.24 0
v -8.639999 -9.92 0
v -8.32 -9.92 0
v -16.64 -10.24 0
v -16.96 -10.24 0
v -16.96 -9.92 0
v -16.64 -9.92 0
v -6.4 -10.88 0
v -6.72 -10.88 0
v -6.72 -10.56 0
v -6.4 -10.56 0
v -21.76 -10.88 0
v -22.08 -10.88 0
v -22.08 -10.56 0
v -21.76 -10.56 0
v -9.28 -11.2 0
v -9.599999 -11.2 0
v -9.599999 -10.88 0
v -9.28 -10.88 0
v -21.76 -11.2 0
v -22.08 -11.2 0
v -22.08 -10.88 0
v -21.76 -10.88 0
v -7.36 -11.52 0
v -7.68 -11.52 0
v -7.68 -11.2 0
v -7.36 -11.2 0
v -8.32 -11.52 0
v -8.639999 -11.52 0
v -8.639999 -11.2 0
v -8.32 -11.2 0
v -22.72 -11.84 0
v -23.04 -11.84 0
v -23.04 -11.52 0
v -22.72 -11.52 0
v -1.6 -12.16 0
v -1.92 -12.16 0
v -1.92 -11.84 0
v -1.6 -11.84 0
v -22.72 -12.16 0
v -23.04 -12.16 0
v -23.04 -11.84 0
v -22.72 -11.84 0
v -1.6 -12.48 0
v -1.92 -12.48 0
v -1.92 -12.16 0
v -1.6 -12.16 0
v -13.12 -12.48 0
v -13.44 -12.48 0
v -13.44 -12.16 0
v -13.12 -12.16 0
v -13.12 -12.8 0
v -13.44 -12.8 0
v -13.44 -12.48 0
v -13.12 -12.48 0
v -22.08 -13.76 0
v -22.4 -13.76 0
v -22.4 -13.44 0
v -22.08 -13.44 0
v -4.16 -14.08 0
v -4.48 -14.08 0
v -4.48 -13.76 0
v -4.16 -13.76 0
v -22.08 -14.08 0
v -22.4 -14.08 0
v -22.4 -13.76 0
v -22.08 -13.76 0
v -4.16 -14.4 0
v -4.48 -14.4 0
v -4.48 -14.08 0
v -4.16 -14.08 0
v -16.96 -14.4 0
v -17.28 -14.4 0
v -17.28 -14.08 0
v -16.96 -14.08 0
v -1.6 -14.72 0
v -1.92 -14.72 0
v -1.92 -14.4 0
v -1.6 -14.4 0
v -16.96 -14.72 0
v -17.28 -14.72 0
v -17.28 -14.4 0
v -16.96 -14.4 0
v -1.6 -15.04 0
v -1.92 -15.04 0
v -1.92 -14.72 0
v -1.6 -14.72 0
v -21.76 -16.32 0
v -22.08 -16.32 0
v -22.08 -16 0
v -21.76 -16 0
v -5.12 -16.64 0
v -5.44 -16.64 0
v -5.44 -16.32 0
v -5.12 -16.32 0
v -21.76 -16.64 0
v -22.08 -16.64 0
v -22.08 -16.32 0
v -21.76 -16.32 0
v -5.12 -16.96 0
v -5.44 -16.96 0
v -5.44 -16.64 0
v -5.12 -16.64 0
v -21.44 -17.28 0
v -21.76 -17.28 0
v -21.76 -16.96 0
v -21.44 -16.96 0
v -1.28 -17.6 0
v -1.6 -17.6 0
v -1.6 -17.28 0
v -1.28 -17.28 0
v -21.44 -17.6 0
v -21.76 -17.6 0
v -21.76 -17.28 0
v -21.44 -17.28 0
v -22.72 -17.6 0
v -23.04 -17.6 0
v -23.04 -17.28 0
v -22.72 -17.28 0
v -1.28 -17.92 0
v -1.6 -17.92 0
v -1.6 -17.6 0
v -1.28 -17.6 0
v -22.72 -17.92 0
v -23.04 -17.92 0
v -23.04 -17.6 0
v -22.72 -17.6 0
v -22.08 -18.24 0
v -22.4 -18.24 0
v -22.4 -17.92 0
v -22.08 -17.92 0
v -23.68 -18.24 0
v -24 -18.24 0
v -24 -17.92 0
v -23.68 -17.92 0
v -21.44 -18.56 0
v -21.76 -18.56 0
v -21.76 -18.24 0
v -21.44 -18.24 0
v -23.68 -18.56 0
v -24 -18.56 0
v -24 -18.24 0
v -23.68 -18.24 0
v -21.44 -18.88 0
v -21.76 -18.88 0
v -21.76 -18.56 0
v -21.44 -18.56 0
v -22.4 -18.88 0
v -22.72 -18.88 0
v -22.72 -18.56 0
v -22.4 -18.56 0
v -2.24 -19.2 0
v -2.56 -19.2 0
v -2.56 -18.88 0
v -2.24 -18.88 0
v -8 -19.2 0
v -8.32 -19.2 0
v -8.32 -18.88 0
v -8 -18.88 0
v -16.96 -19.2 0
v -17.28 -19.2 0
v -17.28 -18.88 0
v -16.96 -18.88 0
v -22.4 -19.2 0
v -22.72 -19.2 0
v -22.72 -18.88 0
v -22.4 -18.88 0
v -23.04 -19.2 0
v -23.36 -19.2 0
v -23.36 -18.88 0
v -23.04 -18.88 0
v -2.24 -19.52 0
v -2.56 -19.52 0
v -2.56 -19.2 0
v -2.24 -19.2 0
v -8 -19.52 0
v -8.32 -19.52 0
v -8.32 -19.2 0
v -8 -19.2 0
v -16.96 -19.52 0
v -17.28 -19.52 0
v -17.28 -19.2 0
v -16.96 -19.2 0
v -21.76 -19.52 0
v -22.08 -19.52 0
v -22.08 -19.2 0
v -21.76 -19.2 0
v -13.76 -19.84 0
v -14.08 -19.84 0
v -14.08 -19.52 0
v -13.76 -19.52 0
v -21.76 -19.84 0
v -22.08 -19.84 0
v -22.08 -19.52 0
v -21.76 -19.52 0
v -13.76 -20.16 0
v -14.08 -20.16 0
v -14.08 -19.84 0
v -13.76 -19.84 0
v -22.4 -20.16 0
v -22.72 -20.16 0
v -22.72 -19.84 0
v -22.4 -19.84 0
v -22.4 -20.48 0
v -22.72 -20.48 0
v -22.72 -20.16 0
v -22.4 -20.16 0
v -23.04 -20.48 0
v -23.36 -20.48 0
v -23.36 -20.16 0
v -23.04 -20.16 0
v -21.12 -20.8 0
v -21.44 -20.8 0
v -21.44 -20.48 0
v -21.12 -20.48 0
v -23.04 -20.8 0
v -23.36 -20.8 0
v -23.36 -20.48 0
v -23.04 -20.48 0
v -0.64 -21.12 0
v -0.96 -21.12 0
v -0.96 -20.8 0
v -0.64 -20.8 0
v -19.52 -21.12 0
v -19.84 -21.12 0
v -19.84 -20.8 0
v -19.52 -20.8 0
v -21.12 -21.12 0
v -21.44 -21.12 0
v -21.44 -20.8 0
v -21.12 -20.8 0
v -22.08 -21.12 0
v -22.4 -21.12 0
v -22.4 -20.8 0
v -22.08 -20.8 0
v -23.04 -21.12 0
v -23.36 -21.12 0
v -23.36 -20.8 0
v -23.04 -20.8 0
v -0.64 -21.44 0
v -0.96 -21.44 0
v -0.96 -21.12 0
v -0.64 -21.12 0
v -19.52 -21.44 0
v -19.84 -21.44 0
v -19.84 -21.12 0
v -19.52 -21.12 0
v -22.08 -21.44 0
v -22.4 -21.44 0
v -22.4 -21.12 0
v -22.08 -21.12 0
v -23.04 -21.44 0
v -23.36 -21.44 0
v -23.36 -21.12 0
v -23.04 -21.12 0
v -17.6 -21.76 0
v -17.92 -21.76 0
v -17.92 -21.44 0
v -17.6 -21.44 0
v -19.52 -21.76 0
v -19.84 -21.76 0
v -19.84 -21.44 0
v -19.52 -21.44 0
v -5.44 -22.08 0
v -5.76 -22.08 0
v -5.76 -21.76 0
v -5.44 -21.76 0
v -16 -22.08 0
v -16.32 -22.08 0
v -16.32 -21.76 0
v -16 -21.76 0
v -17.6 -22.08 0
v -17.92 -22.08 0
v -17.92 -21.76 0
v -17.6 -21.76 0
v -19.84 -22.08 0
v -20.16 -22.08 0
v -20.16 -21.76 0
v -19.84 -21.76 0
v -21.12 -22.08 0
v -21.44 -22.08 0
v -21.44 -21.76 0
v -21.12 -21.76 0
v -5.44 -22.4 0
v -5.76 -22.4 0
v -5.76 -22.08 0
v -5.44 -22.08 0
v -16 -22.4 0
v -16.32 -22.4 0
v -16.32 -22.08 0
v -16 -22.08 0
v -17.6 -22.4 0
v -17.92 -22.4 0
v -17.92 -22.08 0
v -17.6 -22.08 0
v -18.88 -22.4 0
v -19.2 -22.4 0
v -19.2 -22.08 0
v -18.88 -22.08 0
v -19.84 -22.4 0
v -20.16 -22.4 0
v -20.16 -22.08 0
v -19.84 -22.08 0
v -21.12 -22.4 0
v -21.44 -22.4 0
v -21.44 -22.08 0
v -21.12 -22.08 0
v -22.72 -22.4 0
v -23.04 -22.4 0
v -23.04 -22.08 0
v -22.72 -22.08 0
v -2.56 -22.72 0
v -2.88 -22.72 0
v -2.88 -22.4 0
v -2.56 -22.4 0
v -13.12 -22.72 0
v -13.44 -22.72 0
v -13.44 -22.4 0
v -13.12 -22.4 0
v -16 -22.72 0
v -16.32 -22.72 0
v -16.32 -22.4 0
v -16 -22.4 0
v -16.96 -22.72 0
v -17.28 -22.72 0
v -17.28 -22.4 0
v -16.96 -22.4 0
v -18.88 -22.72 0
v -19.2 -22.72 0
v -19.2 -22.4 0
v -18.88 -22.4 0
v -21.76 -22.72 0
v -22.08 -22.72 0
v -22.08 -22.4 0
v -21.76 -22.4 0
v -22.72 -22.72 0
v -23.04 -22.72 0
v -23.04 -22.4 0
v -22.72 -22.4 0
v -2.56 -23.04 0
v -2.88 -23.04 0
v -2.88 -22.72 0
v -2.56 -22.72 0
v -11.2 -23.04 0
v -11.52 -23.04 0
v -11.52 -22.72 0
v -11.2 -22.72 0
v -13.12 -23.04 0
v -13.44 -23.04 0
v -13.44 -22.72 0
v -13.12 -22.72 0
v -14.4 -23.04 0
v -14.72 -23.04 0
v -14.72 -22.72 0
v -14.4 -22.72 0
v -15.36 -23.04 0
v -15.68 -23.04 0
v -15.68 -22.72 0
v -15.36 -22.72 0
v -16.96 -23.04 0
v -17.28 -23.04 0
v -17.28 -22.72 0
v -16.96 -22.72 0
v -21.44 -23.04 0
v -21.76 -23.04 0
v -21.76 -22.72 0
v -21.44 -22.72 0
v -22.4 -23.04 0
v -22.72 -23.04 0
v -22.72 -22.72 0
v -22.4 -22.72 0
v -9.92 -23.36 0
v -10.24 -23.36 0
v -10.24 -23.04 0
v -9.92 -23.04 0
v -11.2 -23.36 0
v -11.52 -23.36 0
v -11.52 -23.04 0
v -11.2 -23.04 0
v -12.48 -23.36 0
v -12.8 -23.36 0
v -12.8 -23.04 0
v -12.48 -23.04 0
v -13.12 -23.36 0
v -13.44 -23.36 0
v -13.44 -23.04 0
v -13.12 -23.04 0
v -14.4 -23.36 0
v -14.72 -23.36 0
v -14.72 -23.04 0
v -14.4 -23.04 0
v -15.36 -23.36 0
v -15.68 -23.36 0
v -15.68 -23.04 0
v -15.36 -23.04 0
v -16.64 -23.36 0
v -16.96 -23.36 0
v -16.96 -23.04 0
v -16.64 -23.04 0
v -18.24 -23.36 0
v -18.56 -23.36 0
v -18.56 -23.04 0
v -18.24 -23.04 0
v -20.48 -23.36 0
v -20.8 -23.36 0
v -20.8 -23.04 0
v -20.48 -23.04 0
v -21.44 -23.36 0
v -21.76 -23.36 0
v -21.76 -23.04 0
v -21.44 -23.04 0
v -23.36 -23.36 0
v -23.68 -23.36 0
v -23.68 -23.04 0
v -23.36 -23.04 0
v -9.92 -23.68 0
v -10.24 -23.68 0
v -10.24 -23.36 0
v -9.92 -23.36 0
v -10.56 -23.68 0
v -10.88 -23.68 0
v -10.88 -23.36 0
v -10.56 -23.36 0
v -10.88 -23.68 0
v -11.2 -23.68 0
v -11.2 -23.36 0
v -10.88 -23.36 0
v -12.48 -23.68 0
v -12.8 -23.68 0
v -12.8 -23.36 0
v -12.48 -23.36 0
v -13.44 -23.68 0
v -13.76 -23.68 0
v -13.76 -23.36 0
v -13.44 -23.36 0
v -16 -23.68 0
v -16.32 -23.68 0
v -16.32 -23.36 0
v -16 -23.36 0
v -16.64 -23.68 0
v -16.96 -23.68 0
v -16.96 -23.36 0
v -16.64 -23.36 0
v -18.24 -23.68 0
v -18.56 -23.68 0
v -18.56 -23.36 0
v -18.24 -23.36 0
v -19.2 -23.68 0
v -19.52 -23.68 0
v -19.52 -23.36 0
v -19.2 -23.36 0
v -20.48 -23.68 0
v -20.8 -23.68 0
v -20.8 -23.36 0
v -20.48 -23.36 0
v -22.08 -23.68 0
v -22.4 -23.68 0
v -22.4 -23.36 0
v -22.08 -23.36 0
v -23.36 -23.68 0
v -23.68 -23.68 0
v -23.68 -23.36 0
v -23.36 -23.36 0
v -10.88 -24 0
v -11.2 -24 0
v -11.2 -23.68 0
v -10.88 -23.68 0
v -13.44 -24 0
v -13.76 -24 0
v -13.76 -23.68 0
v -13.44 -23.68 0
v -14.08 -24 0
v -14.4 -24 0
v -14.4 -23.68 0
v -14.08 -23.68 0
v -19.2 -24 0
v -19.52 -24 0
v -19.52 -23.68 0
v -19.2 -23.68 0
v -22.08 -24 0
v -22.4 -24 0
v -22.4 -23.68 0
v -22.08 -23.68 0

# Texture cooridinates (Count = 16)
vt 0.6667888 0.3334554
vt 0.8332112 0.3334554
vt 0.8332112 0.6665446
vt 0.6667888 0.6665446
vt 0.6667888 0.6667887
vt 0.8332112 0.6667887
vt 0.8332112 0.9998779
vt 0.6667888 0.9998779
vt 0.1667887 0.3334554
vt 0.3332113 0.3334554
vt 0.3332113 0.6665446
vt 0.1667887 0.6665446
vt 0.1667887 0.6667887
vt 0.3332113 0.6667887
vt 0.3332113 0.9998779
vt 0.1667887 0.9998779

# Normal
vn 0 0 -1

# Mesh description
g TestLevel_mesh_0003

# Faces
f 1/1/1 2/2/1 3/3/1 4/4/1
f 5/1/1 6/2/1 7/3/1 8/4/1
f 9/1/1 10/2/1 11/3/1 12/4/1
f 13/1/1 14/2/1 15/3/1 16/4/1
f 17/1/1 18/2/1 19/3/1 20/4/1
f 21/1/1 22/2/1 23/3/1 24/4/1
f 25/1/1 26/2/1 27/3/1 28/4/1
f 29/1/1 30/2/1 31/3/1 32/4/1
f 33/1/1 34/2/1 35/3/1 36/4/1
f 37/5/1 38/6/1 39/7/1 40/8/1
f 41/1/1 42/2/1 43/3/1 44/4/1
f 45/1/1 46/2/1 47/3/1 48/4/1
f 49/1/1 50/2/1 51/3/1 52/4/1
f 53/5/1 54/6/1 55/7/1 56/8/1
f 57/1/1 58/2/1 59/3/1 60/4/1
f 61/1/1 62/2/1 63/3/1 64/4/1
f 65/9/1 66/10/1 67/11/1 68/12/1
f 69/1/1 70/2/1 71/3/1 72/4/1
f 73/1/1 74/2/1 75/3/1 76/4/1
f 77/1/1 78/2/1 79/3/1 80/4/1
f 81/1/1 82/2/1 83/3/1 84/4/1
f 85/5/1 86/6/1 87/7/1 88/8/1
f 89/1/1 90/2/1 91/3/1 92/4/1
f 93/5/1 94/6/1 95/7/1 96/8/1
f 97/9/1 98/10/1 99/11/1 100/12/1
f 101/5/1 102/6/1 103/7/1 104/8/1
f 105/1/1 106/2/1 107/3/1 108/4/1
f 109/1/1 110/2/1 111/3/1 112/4/1
f 113/1/1 114/2/1 115/3/1 116/4/1
f 117/1/1 118/2/1 119/3/1 120/4/1
f 121/1/1 122/2/1 123/3/1 124/4/1
f 125/9/1 126/10/1 127/11/1 128/12/1
f 129/5/1 130/6/1 131/7/1 132/8/1
f 133/1/1 134/2/1 135/3/1 136/4/1
f 137/1/1 138/2/1 139/3/1 140/4/1
f 141/1/1 142/2/1 143/3/1 144/4/1
f 145/1/1 146/2/1 147/3/1 148/4/1
f 149/1/1 150/2/1 151/3/1 152/4/1
f 153/1/1 154/2/1 155/3/1 156/4/1
f 157/1/1 158/2/1 159/3/1 160/4/1
f 161/1/1 162/2/1 163/3/1 164/4/1
f 165/1/1 166/2/1 167/3/1 168/4/1
f 169/5/1 170/6/1 171/7/1 172/8/1
f 173/1/1 174/2/1 175/3/1 176/4/1
f 177/1/1 178/2/1 179/3/1 180/4/1
f 181/1/1 182/2/1 183/3/1 184/4/1
f 185/1/1 186/2/1 187/3/1 188/4/1
f 189/1/1 190/2/1 191/3/1 192/4/1
f 193/1/1 194/2/1 195/3/1 196/4/1
f 197/1/1 198/2/1 199/3/1 200/4/1
f 201/1/1 202/2/1 203/3/1 204/4/1
f 205/1/1 206/2/1 207/3/1 208/4/1
f 209/1/1 210/2/1 211/3/1 212/4/1
f 213/5/1 214/6/1 215/7/1 216/8/1
f 217/5/1 218/6/1 219/7/1 220/8/1
f 221/1/1 222/2/1 223/3/1 224/4/1
f 225/1/1 226/2/1 227/3/1 228/4/1
f 229/1/1 230/2/1 231/3/1 232/4/1
f 233/1/1 234/2/1 235/3/1 236/4/1
f 237/5/1 238/6/1 239/7/1 240/8/1
f 241/1/1 242/2/1 243/3/1 244/4/1
f 245/1/1 246/2/1 247/3/1 248/4/1
f 249/5/1 250/6/1 251/7/1 252/8/1
f 253/1/1 254/2/1 255/3/1 256/4/1
f 257/1/1 258/2/1 259/3/1 260/4/1
f 261/1/1 262/2/1 263/3/1 264/4/1
f 265/1/1 266/2/1 267/3/1 268/4/1
f 269/9/1 270/10/1 271/11/1 272/12/1
f 273/1/1 274/2/1 275/3/1 276/4/1
f 277/1/1 278/2/1 279/3/1 280/4/1
f 281/1/1 282/2/1 283/3/1 284/4/1
f 285/1/1 286/2/1 287/3/1 288/4/1
f 289/1/1 290/2/1 291/3/1 292/4/1
f 293/5/1 294/6/1 295/7/1 296/8/1
f 297/1/1 298/2/1 299/3/1 300/4/1
f 301/9/1 302/10/1 303/11/1 304/12/1
f 305/1/1 306/2/1 307/3/1 308/4/1
f 309/1/1 310/2/1 311/3/1 312/4/1
f 313/1/1 314/2/1 315/3/1 316/4/1
f 317/1/1 318/2/1 319/3/1 320/4/1
f 321/1/1 322/2/1 323/3/1 324/4/1
f 325/1/1 326/2/1 327/3/1 328/4/1
f 329/5/1 330/6/1 331/7/1 332/8/1
f 333/5/1 334/6/1 335/7/1 336/8/1
f 337/1/1 338/2/1 339/3/1 340/4/1
f 341/1/1 342/2/1 343/3/1 344/4/1
f 345/1/1 346/2/1 347/3/1 348/4/1
f 349/1/1 350/2/1 351/3/1 352/4/1
f 353/1/1 354/2/1 355/3/1 356/4/1
f 357/1/1 358/2/1 359/3/1 360/4/1
f 361/5/1 362/6/1 363/7/1 364/8/1
f 365/1/1 366/2/1 367/3/1 368/4/1
f 369/1/1 370/2/1 371/3/1 372/4/1
f 373/1/1 374/2/1 375/3/1 376/4/1
f 377/1/1 378/2/1 379/3/1 380/4/1
f 381/1/1 382/2/1 383/3/1 384/4/1
f 385/1/1 386/2/1 387/3/1 388/4/1
f 389/5/1 390/6/1 391/7/1 392/8/1
f 393/1/1 394/2/1 395/3/1 396/4/1
f 397/1/1 398/2/1 399/3/1 400/4/1
f 401/1/1 402/2/1 403/3/1 404/4/1
f 405/5/1 406/6/1 407/7/1 408/8/1
f 409/1/1 410/2/1 411/3/1 412/4/1
f 413/1/1 414/2/1 415/3/1 416/4/1
f 417/9/1 418/10/1 419/11/1 420/12/1
f 421/1/1 422/2/1 423/3/1 424/4/1
f 425/1/1 426/2/1 427/3/1 428/4/1
f 429/5/1 430/6/1 431/7/1 432/8/1
f 433/1/1 434/2/1 435/3/1 436/4/1
f 437/1/1 438/2/1 439/3/1 440/4/1
f 441/1/1 442/2/1 443/3/1 444/4/1
f 445/1/1 446/2/1 447/3/1 448/4/1
f 449/5/1 450/6/1 451/7/1 452/8/1
f 453/5/1 454/6/1 455/7/1 456/8/1
f 457/1/1 458/2/1 459/3/1 460/4/1
f 461/1/1 462/2/1 463/3/1 464/4/1
f 465/5/1 466/6/1 467/7/1 468/8/1
f 469/1/1 470/2/1 471/3/1 472/4/1
f 473/5/1 474/6/1 475/7/1 476/8/1
f 477/5/1 478/6/1 479/7/1 480/8/1
f 481/1/1 482/2/1 483/3/1 484/4/1
f 485/1/1 486/2/1 487/3/1 488/4/1
f 489/5/1 490/6/1 491/7/1 492/8/1
f 493/5/1 494/6/1 495/7/1 496/8/1
f 497/1/1 498/2/1 499/3/1 500/4/1
f 501/1/1 502/2/1 503/3/1 504/4/1
f 505/13/1 506/14/1 507/15/1 508/16/1
f 509/5/1 510/6/1 511/7/1 512/8/1
f 513/9/1 514/10/1 515/11/1 516/12/1
f 517/1/1 518/2/1 519/3/1 520/4/1
f 521/13/1 522/14/1 523/15/1 524/16/1
f 525/5/1 526/6/1 527/7/1 528/8/1
f 529/9/1 530/10/1 531/11/1 532/12/1
f 533/13/1 534/14/1 535/15/1 536/16/1
f 537/1/1 538/2/1 539/3/1 540/4/1
f 541/9/1 542/10/1 543/11/1 544/12/1
f 545/9/1 546/10/1 547/11/1 548/12/1
f 549/13/1 550/14/1 551/15/1 552/16/1
f 553/13/1 554/14/1 555/15/1 556/16/1
f 557/9/1 558/10/1 559/11/1 560/12/1
f 561/9/1 562/10/1 563/11/1 564/12/1
f 565/13/1 566/14/1 567/15/1 568/16/1
f 569/5/1 570/6/1 571/7/1 572/8/1
f 573/5/1 574/6/1 575/7/1 576/8/1
f 577/5/1 578/6/1 579/7/1 580/8/1
f 581/9/1 582/10/1 583/11/1 584/12/1
f 585/9/1 586/10/1 587/11/1 588/12/1
f 589/1/1 590/2/1 591/3/1 592/4/1
f 593/1/1 594/2/1 595/3/1 596/4/1
f 597/1/1 598/2/1 599/3/1 600/4/1
f 601/13/1 602/14/1 603/15/1 604/16/1
f 605/5/1 606/6/1 607/7/1 608/8/1
f 609/9/1 610/10/1 611/11/1 612/12/1
f 613/1/1 614/2/1 615/3/1 616/4/1
f 617/13/1 618/14/1 619/15/1 620/16/1
f 621/9/1 622/10/1 623/11/1 624/12/1
f 625/9/1 626/10/1 627/11/1 628/12/1
f 629/13/1 630/14/1 631/15/1 632/16/1
f 633/5/1 634/6/1 635/7/1 636/8/1
f 637/5/1 638/6/1 639/7/1 640/8/1
f 641/5/1 642/6/1 643/7/1 644/8/1
f 645/9/1 646/10/1 647/11/1 648/12/1
f 649/13/1 650/14/1 651/15/1 652/16/1
f 653/13/1 654/14/1 655/15/1 656/16/1
f 657/1/1 658/2/1 659/3/1 660/4/1
f 661/13/1 662/14/1 663/15/1 664/16/1
f 665/9/1 666/10/1 667/11/1 668/12/1
f 669/9/1 670/10/1 671/11/1 672/12/1
f 673/5/1 674/6/1 675/7/1 676/8/1
f 677/9/1 678/10/1 679/11/1 680/12/1
f 681/5/1 682/6/1 683/7/1 684/8/1
f 685/5/1 686/6/1 687/7/1 688/8/1
f 689/13/1 690/14/1 691/15/1 692/16/1
f 693/13/1 694/14/1 695/15/1 696/16/1
f 697/13/1 698/14/1 699/15/1 700/16/1
f 701/1/1 702/2/1 703/3/1 704/4/1
f 705/13/1 706/14/1 707/15/1 708/16/1
f 709/9/1 710/10/1 711/11/1 712/12/1
f 713/13/1 714/14/1 715/15/1 716/16/1
f 717/9/1 718/10/1 719/11/1 720/12/1
f 721/9/1 722/10/1 723/11/1 724/12/1
f 725/13/1 726/14/1 727/15/1 728/16/1
f 729/5/1 730/6/1 731/7/1 732/8/1
f 733/5/1 734/6/1 735/7/1 736/8/1
f 737/9/1 738/10/1 739/11/1 740/12/1
f 741/13/1 742/14/1 743/15/1 744/16/1
f 745/9/1 746/10/1 747/11/1 748/12/1
f 749/9/1 750/10/1 751/11/1 752/12/1
f 753/9/1 754/10/1 755/11/1 756/12/1
f 757/1/1 758/2/1 759/3/1 760/4/1
f 761/13/1 762/14/1 763/15/1 764/16/1
f 765/13/1 766/14/1 767/15/1 768/16/1
f 769/13/1 770/14/1 771/15/1 772/16/1
f 773/13/1 774/14/1 775/15/1 776/16/1
f 777/9/1 778/10/1 779/11/1 780/12/1
f 781/13/1 782/14/1 783/15/1 784/16/1
f 785/9/1 786/10/1 787/11/1 788/12/1
f 789/13/1 790/14/1 791/15/1 792/16/1
f 793/9/1 794/10/1 795/11/1 796/12/1
f 797/13/1 798/14/1 799/15/1 800/16/1
f 801/9/1 802/10/1 803/11/1 804/12/1
f 805/9/1 806/10/1 807/11/1 808/12/1
f 809/9/1 810/10/1 811/11/1 812/12/1
f 813/13/1 814/14/1 815/15/1 816/16/1
f 817/13/1 818/14/1 819/15/1 820/16/1
f 821/13/1 822/14/1 823/15/1 824/16/1
f 825/9/1 826/10/1 827/11/1 828/12/1
f 829/13/1 830/14/1 831/15/1 832/16/1
f 833/9/1 834/10/1 835/11/1 836/12/1
f 837/9/1 838/10/1 839/11/1 840/12/1
f 841/13/1 842/14/1 843/15/1 844/16/1
f 845/9/1 846/10/1 847/11/1 848/12/1
f 849/13/1 850/14/1 851/15/1 852/16/1
f 853/9/1 854/10/1 855/11/1 856/12/1
f 857/9/1 858/10/1 859/11/1 860/12/1
f 861/9/1 862/10/1 863/11/1 864/12/1
f 865/13/1 866/14/1 867/15/1 868/16/1
f 869/9/1 870/10/1 871/11/1 872/12/1
f 873/13/1 874/14/1 875/15/1 876/16/1
f 877/9/1 878/10/1 879/11/1 880/12/1
f 881/9/1 882/10/1 883/11/1 884/12/1
f 885/9/1 886/10/1 887/11/1 888/12/1
f 889/9/1 890/10/1 891/11/1 892/12/1
f 893/9/1 894/10/1 895/11/1 896/12/1
f 897/9/1 898/10/1 899/11/1 900/12/1

